<?xml version="1.0" encoding="UTF-8" standalone="no"?>
<svg
   xmlns:svg="http://www.w3.org/2000/svg"
   xmlns="http://www.w3.org/2000/svg"
   version="1.1"
   width="68"
   height="97"
   id="svg4365">
  <path
     d="m 45.5,0.03125 -23,13.25 L 0,0.34375 l 0,84 22.5,12.9375 L 45.5,84.0625 68,97 68,13 45.5,0.03125 z"
     id="path2836"
     style="fill:#ffffff" />
  <path
     d="M 22,69.65823 0,57 0,57 0,84.34177 22,97"
     id="path4260"
     style="fill:#6bd06b" />
  <path
     d="m 23.00124,0 -1,0"
     id="path4258"
     style="fill:#ffff00" />
  <path
     d="m 45.00124,83.99999 1,0"
     id="path4263"
     style="fill:#ffff00" />
  <path
     d="m 23.00124,83.99999 22,0"
     id="path4256"
     style="fill:#ffff00" />
  <path
     d="m 22.00124,83.99999 1,0"
     id="rect4213"
     style="fill:#ffff00" />
  <path
     d="M 23,69.65823 45,57 45,57 45,84.34177 23,97"
     id="path4281"
     style="fill:#33a333" />
  <path
     d="M 68,69.65823 46,57 46,57 46,84.34177 68,97"
     id="path4283"
     style="fill:#6bd06b" />
  <path
     d="M 22,41.33055 0,28.67232 l 0,0 0,27.34177 22,12.65823"
     id="path4285"
     style="fill:#6bd06b" />
  <path
     d="m 23,41.33055 22,-12.65823 0,0 0,27.34177 -22,12.65823"
     id="path4287"
     style="fill:#33a333" />
  <path
     d="m 68,41.33055 -22,-12.65823 0,0 0,27.34177 22,12.65823"
     id="path4289"
     style="fill:#6bd06b" />
  <path
     d="M 22,12.98855 0,0.33032 l 0,0 0,27.34177 22,12.65823"
     id="path4291"
     style="fill:#6bd06b" />
  <path
     d="m 23,12.98855 22,-12.65823 0,0 0,27.34177 -22,12.65823"
     id="path4293"
     style="fill:#33a333" />
  <path
     d="M 68,12.98855 46,0.33032 l 0,0 0,27.34177 22,12.65823"
     id="path4295"
     style="fill:#6bd06b" />
  <path
     d="M 10.6875,49.81118 C 6.29757,50.01334 4.49184,53.33109 0,50.02993 l 0,5.96875 12.3125,7.09375 c 0.0456,-0.0373 0.0784,-0.0555 0.125,-0.0937 2.81501,-2.30695 4.41979,-6.43515 9.5625,-3 l 0,-5.46875 C 16.68002,50.64368 13.23956,49.6937 10.6875,49.81123 z"
     id="path4154"
     style="fill:#6b6bd1" />
  <path
     d="m 30.09791,8.88881 c -2.60995,5.62121 -3.89336,8.45813 5.05834,10.84578 4.63956,1.23749 6.13536,5.36617 5.59375,10.375 L 45,27.67209 45,14.89084 c -3.85376,-2.94532 -5.64122,-6.51119 -3.95971,-12.298 0,0 -10.94238,6.29597 -10.94238,6.29597 z"
     id="path4173"
     style="fill:#3333a4" />
  <path
     d="m 45,28.67232 -4.375,2.53125 c -1.50952,9.28109 -9.50949,20.99962 -17.625,23.5 l 0,5.6875 c 2.58175,0.85205 2.91619,3.67858 3.03125,6.53125 l 9.125,-5.28125 C 31.64762,57.64923 34.87512,46.65307 45,36.67232 l 0,-8 z"
     id="path4178"
     style="fill:#3333a4" />
  <path
     d="m 46,16.07834 0,11.59375 6.5,3.75 C 52.31383,27.05527 48.80434,20.66336 46,16.07834 z"
     id="path4183"
     style="fill:#6b6bd1" />
  <path
     d="m 46,28.67232 0,7.46875 c 4.47036,0.47366 6.27424,-1.12702 6.5,-3.75 L 46,28.67232 z"
     id="path4188"
     style="fill:#6b6bd1" />
  <path
     d="m 45.0035,61.59243 c -4.25893,2.00382 -7.32499,2.02717 -9.15625,0.6875 L 26.066,67.93618 c 0.20082,5.78898 0.62595,10.78111 18.9375,-1.28125 l 0,-5.0625 z"
     id="path4194"
     style="fill:#3333a4" />
  <path
     d="M 46,61.96875 46,66.75 C 53.80168,73.7714 61.6514,80.38829 68,97 l 0,-8.40625 C 59.01957,69.8039 56.05188,72.01184 46,61.96875 z"
     id="path4199"
     style="fill:#6b6bd1" />
  <path
     d="m 0,57 0,1.9375 c 7.56411,6.595 7.59147,7.85799 11.5625,4.71875 L 0,57 z"
     id="path4204"
     style="fill:#6b6bd1" />
</svg>
